<?xml version="1.0" standalone="no"?>
<!DOCTYPE svg PUBLIC "-//W3C//DTD SVG 20010904//EN"
 "http://www.w3.org/TR/2001/REC-SVG-20010904/DTD/svg10.dtd">
<svg version="1.0" xmlns="http://www.w3.org/2000/svg"
 width="558.000000pt" height="558.000000pt" viewBox="0 0 558.000000 558.000000"
 preserveAspectRatio="xMidYMid meet">
<metadata>
Created by potrace 1.11, written by Peter Selinger 2001-2013
</metadata>
<g transform="translate(0.000000,558.000000) scale(0.100000,-0.100000)"
fill="#000000" stroke="none">
<path d="M1641 4390 c-274 -40 -537 -206 -685 -432 -53 -82 -120 -227 -130
-284 -3 -16 -11 -45 -18 -64 -9 -27 -13 -258 -15 -955 -3 -785 -1 -928 12
-975 66 -247 274 -420 533 -444 l52 -5 0 207 c1 114 2 630 3 1147 l2 940 33
67 c68 140 219 229 377 222 103 -5 70 11 860 -424 17 -9 136 -74 265 -145 129
-70 246 -135 260 -144 14 -8 27 -16 30 -16 3 0 50 -26 106 -58 128 -72 134
-74 135 -51 4 89 0 384 -6 420 -23 158 -133 302 -300 394 -33 18 -94 52 -135
75 -41 23 -106 59 -145 80 -38 21 -105 58 -149 82 -43 23 -80 43 -82 43 -3 0
-21 10 -42 23 -20 13 -80 46 -132 74 -52 28 -122 66 -155 85 -117 66 -254 117
-355 134 -58 10 -262 12 -319 4z"/>
<path d="M4060 3286 c0 -732 -3 -1131 -10 -1162 -29 -130 -137 -235 -280 -274
-64 -17 -106 -18 -178 -4 -56 12 -99 31 -252 116 -45 26 -322 177 -415 228
-49 27 -96 53 -200 110 -27 15 -75 41 -105 58 -30 16 -152 83 -270 147 -320
175 -339 185 -344 177 -2 -4 -3 -104 -1 -222 3 -245 14 -299 83 -406 68 -104
132 -150 407 -299 77 -41 66 -36 415 -228 135 -74 277 -150 315 -170 471 -236
1076 -47 1324 414 37 69 79 181 97 260 4 19 9 444 11 944 2 784 1 919 -12 974
-57 241 -266 420 -522 447 l-63 6 0 -1116z"/>
</g>
</svg>
